# Blender 4.2.3 LTS
# www.blender.org
mtllib cubo_basura.mtl
o Plano
v 0.649352 0.770000 0.649352
v 0.649352 -0.950000 0.649352
v 0.649352 0.770000 -0.649352
v 0.649352 -0.950000 -0.649352
v 0.466409 0.770000 -0.623049
v 0.298286 0.770000 -0.546270
v 0.158605 0.770000 -0.425235
v 0.058681 0.770000 -0.269751
v 0.006610 0.770000 -0.092412
v 0.006610 0.770000 0.092412
v 0.058681 0.770000 0.269751
v 0.158605 0.770000 0.425235
v 0.298286 0.770000 0.546270
v 0.466408 0.770000 0.623049
v 0.649352 0.613637 0.649352
v 0.649352 0.457273 0.649352
v 0.649352 0.300909 0.649352
v 0.649352 0.144546 0.649352
v 0.649352 -0.011818 0.649352
v 0.649352 -0.168182 0.649352
v 0.649352 -0.324546 0.649352
v 0.649352 -0.480909 0.649352
v 0.649352 -0.637273 0.649352
v 0.649352 -0.793636 0.649352
v 0.466409 -0.950000 0.623049
v 0.298286 -0.950000 0.546270
v 0.158605 -0.950000 0.425235
v 0.058681 -0.950000 0.269751
v 0.006609 -0.950000 0.092412
v 0.006609 -0.950000 -0.092412
v 0.058681 -0.950000 -0.269751
v 0.158605 -0.950000 -0.425235
v 0.298286 -0.950000 -0.546270
v 0.466408 -0.950000 -0.623049
v 0.649352 -0.793636 -0.649352
v 0.649352 -0.637273 -0.649352
v 0.649352 -0.480909 -0.649352
v 0.649352 -0.324546 -0.649352
v 0.649352 -0.168182 -0.649352
v 0.649352 -0.011818 -0.649352
v 0.649352 0.144545 -0.649352
v 0.649352 0.300909 -0.649352
v 0.649352 0.457273 -0.649352
v 0.649352 0.613637 -0.649352
v 0.466408 0.613637 0.623049
v 0.298286 0.613637 0.546270
v 0.158605 0.613637 0.425235
v 0.058681 0.613637 0.269751
v 0.006610 0.613637 0.092412
v 0.006610 0.613637 -0.092412
v 0.058681 0.613637 -0.269751
v 0.158605 0.613637 -0.425235
v 0.298286 0.613637 -0.546270
v 0.466409 0.613637 -0.623049
v 0.466408 0.457273 0.623049
v 0.298286 0.457273 0.546270
v 0.158605 0.457273 0.425235
v 0.058681 0.457273 0.269751
v 0.006609 0.457273 0.092412
v 0.006609 0.457273 -0.092412
v 0.058681 0.457273 -0.269751
v 0.158605 0.457273 -0.425235
v 0.298286 0.457273 -0.546270
v 0.466408 0.457273 -0.623049
v 0.466409 0.300909 0.623049
v 0.298286 0.300909 0.546270
v 0.158605 0.300909 0.425235
v 0.058681 0.300909 0.269751
v 0.006609 0.300909 0.092412
v 0.006609 0.300909 -0.092412
v 0.058681 0.300909 -0.269751
v 0.158605 0.300909 -0.425235
v 0.298286 0.300909 -0.546270
v 0.466409 0.300909 -0.623049
v 0.466408 0.144545 0.623049
v 0.298286 0.144545 0.546270
v 0.158605 0.144545 0.425235
v 0.058681 0.144545 0.269751
v 0.006609 0.144545 0.092412
v 0.006609 0.144545 -0.092412
v 0.058681 0.144545 -0.269751
v 0.158605 0.144545 -0.425235
v 0.298286 0.144545 -0.546270
v 0.466408 0.144545 -0.623049
v 0.466408 -0.011818 0.623049
v 0.298286 -0.011818 0.546270
v 0.158605 -0.011818 0.425235
v 0.058681 -0.011818 0.269751
v 0.006609 -0.011818 0.092412
v 0.006609 -0.011818 -0.092412
v 0.058681 -0.011818 -0.269751
v 0.158605 -0.011818 -0.425235
v 0.298286 -0.011818 -0.546270
v 0.466408 -0.011818 -0.623049
v 0.466408 -0.168182 0.623049
v 0.298286 -0.168182 0.546270
v 0.158605 -0.168182 0.425235
v 0.058681 -0.168182 0.269751
v 0.006609 -0.168182 0.092412
v 0.006609 -0.168182 -0.092412
v 0.058681 -0.168182 -0.269751
v 0.158605 -0.168182 -0.425235
v 0.298286 -0.168182 -0.546270
v 0.466408 -0.168182 -0.623049
v 0.466408 -0.324545 0.623049
v 0.298286 -0.324545 0.546270
v 0.158605 -0.324546 0.425235
v 0.058681 -0.324546 0.269751
v 0.006609 -0.324546 0.092412
v 0.006609 -0.324546 -0.092412
v 0.058681 -0.324546 -0.269751
v 0.158605 -0.324546 -0.425235
v 0.298286 -0.324545 -0.546270
v 0.466408 -0.324545 -0.623049
v 0.466408 -0.480909 0.623049
v 0.298286 -0.480909 0.546270
v 0.158605 -0.480909 0.425235
v 0.058681 -0.480909 0.269751
v 0.006609 -0.480909 0.092412
v 0.006609 -0.480909 -0.092412
v 0.058681 -0.480909 -0.269751
v 0.158605 -0.480909 -0.425235
v 0.298286 -0.480909 -0.546270
v 0.466408 -0.480909 -0.623049
v 0.466408 -0.637273 0.623049
v 0.298286 -0.637273 0.546270
v 0.158605 -0.637273 0.425235
v 0.058681 -0.637273 0.269751
v 0.006609 -0.637273 0.092412
v 0.006609 -0.637273 -0.092412
v 0.058681 -0.637273 -0.269751
v 0.158605 -0.637273 -0.425235
v 0.298286 -0.637273 -0.546270
v 0.466408 -0.637273 -0.623049
v 0.466409 -0.793636 0.623049
v 0.298286 -0.793636 0.546270
v 0.158605 -0.793636 0.425235
v 0.058681 -0.793636 0.269751
v 0.006609 -0.793636 0.092412
v 0.006609 -0.793636 -0.092412
v 0.058681 -0.793636 -0.269751
v 0.158605 -0.793636 -0.425235
v 0.298286 -0.793636 -0.546270
v 0.466408 -0.793636 -0.623049
vn 0.1423 -0.0000 0.9898
vn 0.1423 -0.0000 -0.9898
vn 0.4154 -0.0000 -0.9096
vn 0.6549 -0.0000 -0.7557
vn 0.8413 -0.0000 -0.5406
vn 0.9595 -0.0000 -0.2817
vn 1.0000 -0.0000 -0.0000
vn 0.9595 -0.0000 0.2817
vn 0.8413 -0.0000 0.5406
vn 0.6549 -0.0000 0.7557
vn 0.4154 -0.0000 0.9096
vt 0.909091 0.909091
vt 1.000000 0.909091
vt 1.000000 1.000000
vt 0.909091 1.000000
vt 0.000000 0.909091
vt 0.090909 0.909091
vt 0.090909 1.000000
vt 0.000000 1.000000
vt 0.181818 0.909091
vt 0.181818 1.000000
vt 0.272727 0.909091
vt 0.272727 1.000000
vt 0.363636 0.909091
vt 0.363636 1.000000
vt 0.454545 0.909091
vt 0.454545 1.000000
vt 0.545455 0.909091
vt 0.545455 1.000000
vt 0.636364 0.909091
vt 0.636364 1.000000
vt 0.727273 0.909091
vt 0.727273 1.000000
vt 0.818182 0.909091
vt 0.818182 1.000000
vt 0.000000 0.000000
vt 0.090909 0.000000
vt 0.090909 0.090909
vt 0.000000 0.090909
vt 0.090909 0.181818
vt 0.000000 0.181818
vt 0.090909 0.272727
vt 0.000000 0.272727
vt 0.090909 0.363636
vt 0.000000 0.363636
vt 0.090909 0.454545
vt 0.000000 0.454545
vt 0.090909 0.545455
vt 0.000000 0.545455
vt 0.090909 0.636364
vt 0.000000 0.636364
vt 0.090909 0.727273
vt 0.000000 0.727273
vt 0.090909 0.818182
vt 0.000000 0.818182
vt 0.181818 0.000000
vt 0.181818 0.090909
vt 0.181818 0.181818
vt 0.181818 0.272727
vt 0.181818 0.363636
vt 0.181818 0.454545
vt 0.181818 0.545455
vt 0.181818 0.636364
vt 0.181818 0.727273
vt 0.181818 0.818182
vt 0.272727 0.000000
vt 0.272727 0.090909
vt 0.272727 0.181818
vt 0.272727 0.272727
vt 0.272727 0.363636
vt 0.272727 0.454545
vt 0.272727 0.545455
vt 0.272727 0.636364
vt 0.272727 0.727273
vt 0.272727 0.818182
vt 0.363636 0.000000
vt 0.363636 0.090909
vt 0.363636 0.181818
vt 0.363636 0.272727
vt 0.363636 0.363636
vt 0.363636 0.454545
vt 0.363636 0.545455
vt 0.363636 0.636364
vt 0.363636 0.727273
vt 0.363636 0.818182
vt 0.454545 0.000000
vt 0.454545 0.090909
vt 0.454545 0.181818
vt 0.454545 0.272727
vt 0.454545 0.363636
vt 0.454545 0.454545
vt 0.454545 0.545455
vt 0.454545 0.636364
vt 0.454545 0.727273
vt 0.454545 0.818182
vt 0.545455 0.000000
vt 0.545455 0.090909
vt 0.545455 0.181818
vt 0.545455 0.272727
vt 0.545455 0.363636
vt 0.545455 0.454545
vt 0.545455 0.545455
vt 0.545455 0.636364
vt 0.545455 0.727273
vt 0.545455 0.818182
vt 0.636364 0.000000
vt 0.636364 0.090909
vt 0.636364 0.181818
vt 0.636364 0.272727
vt 0.636364 0.363636
vt 0.636364 0.454545
vt 0.636364 0.545455
vt 0.636364 0.636364
vt 0.636364 0.727273
vt 0.636364 0.818182
vt 0.727273 0.000000
vt 0.727273 0.090909
vt 0.727273 0.181818
vt 0.727273 0.272727
vt 0.727273 0.363636
vt 0.727273 0.454545
vt 0.727273 0.545455
vt 0.727273 0.636364
vt 0.727273 0.727273
vt 0.727273 0.818182
vt 0.818182 0.000000
vt 0.818182 0.090909
vt 0.818182 0.181818
vt 0.818182 0.272727
vt 0.818182 0.363636
vt 0.818182 0.454545
vt 0.818182 0.545455
vt 0.818182 0.636364
vt 0.818182 0.727273
vt 0.818182 0.818182
vt 0.909091 0.000000
vt 0.909091 0.090909
vt 0.909091 0.181818
vt 0.909091 0.272727
vt 0.909091 0.363636
vt 0.909091 0.454545
vt 0.909091 0.545455
vt 0.909091 0.636364
vt 0.909091 0.727273
vt 0.909091 0.818182
vt 1.000000 0.000000
vt 1.000000 0.090909
vt 1.000000 0.181818
vt 1.000000 0.272727
vt 1.000000 0.363636
vt 1.000000 0.454545
vt 1.000000 0.545455
vt 1.000000 0.636364
vt 1.000000 0.727273
vt 1.000000 0.818182
s 0
usemtl Material
f 144/1/1 34/2/1 4/3/1 35/4/1
f 5/5/1 54/6/1 44/7/1 3/8/1
f 54/6/1 64/9/1 43/10/1 44/7/1
f 64/9/1 74/11/1 42/12/1 43/10/1
f 74/11/1 84/13/1 41/14/1 42/12/1
f 84/13/1 94/15/1 40/16/1 41/14/1
f 94/15/1 104/17/1 39/18/1 40/16/1
f 104/17/1 114/19/1 38/20/1 39/18/1
f 114/19/1 124/21/1 37/22/1 38/20/1
f 124/21/1 134/23/1 36/24/1 37/22/1
f 134/23/1 144/1/1 35/4/1 36/24/1
f 1/25/2 15/26/2 45/27/2 14/28/2
f 14/28/3 45/27/3 46/29/3 13/30/3
f 13/30/4 46/29/4 47/31/4 12/32/4
f 12/32/5 47/31/5 48/33/5 11/34/5
f 11/34/6 48/33/6 49/35/6 10/36/6
f 10/36/7 49/35/7 50/37/7 9/38/7
f 9/38/8 50/37/8 51/39/8 8/40/8
f 8/40/9 51/39/9 52/41/9 7/42/9
f 7/42/10 52/41/10 53/43/10 6/44/10
f 6/44/11 53/43/11 54/6/11 5/5/11
f 15/26/2 16/45/2 55/46/2 45/27/2
f 45/27/3 55/46/3 56/47/3 46/29/3
f 46/29/4 56/47/4 57/48/4 47/31/4
f 47/31/5 57/48/5 58/49/5 48/33/5
f 48/33/6 58/49/6 59/50/6 49/35/6
f 49/35/7 59/50/7 60/51/7 50/37/7
f 50/37/8 60/51/8 61/52/8 51/39/8
f 51/39/9 61/52/9 62/53/9 52/41/9
f 52/41/10 62/53/10 63/54/10 53/43/10
f 53/43/11 63/54/11 64/9/11 54/6/11
f 16/45/2 17/55/2 65/56/2 55/46/2
f 55/46/3 65/56/3 66/57/3 56/47/3
f 56/47/4 66/57/4 67/58/4 57/48/4
f 57/48/5 67/58/5 68/59/5 58/49/5
f 58/49/6 68/59/6 69/60/6 59/50/6
f 59/50/7 69/60/7 70/61/7 60/51/7
f 60/51/8 70/61/8 71/62/8 61/52/8
f 61/52/9 71/62/9 72/63/9 62/53/9
f 62/53/10 72/63/10 73/64/10 63/54/10
f 63/54/11 73/64/11 74/11/11 64/9/11
f 17/55/2 18/65/2 75/66/2 65/56/2
f 65/56/3 75/66/3 76/67/3 66/57/3
f 66/57/4 76/67/4 77/68/4 67/58/4
f 67/58/5 77/68/5 78/69/5 68/59/5
f 68/59/6 78/69/6 79/70/6 69/60/6
f 69/60/7 79/70/7 80/71/7 70/61/7
f 70/61/8 80/71/8 81/72/8 71/62/8
f 71/62/9 81/72/9 82/73/9 72/63/9
f 72/63/10 82/73/10 83/74/10 73/64/10
f 73/64/11 83/74/11 84/13/11 74/11/11
f 18/65/2 19/75/2 85/76/2 75/66/2
f 75/66/3 85/76/3 86/77/3 76/67/3
f 76/67/4 86/77/4 87/78/4 77/68/4
f 77/68/5 87/78/5 88/79/5 78/69/5
f 78/69/6 88/79/6 89/80/6 79/70/6
f 79/70/7 89/80/7 90/81/7 80/71/7
f 80/71/8 90/81/8 91/82/8 81/72/8
f 81/72/9 91/82/9 92/83/9 82/73/9
f 82/73/10 92/83/10 93/84/10 83/74/10
f 83/74/11 93/84/11 94/15/11 84/13/11
f 19/75/2 20/85/2 95/86/2 85/76/2
f 85/76/3 95/86/3 96/87/3 86/77/3
f 86/77/4 96/87/4 97/88/4 87/78/4
f 87/78/5 97/88/5 98/89/5 88/79/5
f 88/79/6 98/89/6 99/90/6 89/80/6
f 89/80/7 99/90/7 100/91/7 90/81/7
f 90/81/8 100/91/8 101/92/8 91/82/8
f 91/82/9 101/92/9 102/93/9 92/83/9
f 92/83/10 102/93/10 103/94/10 93/84/10
f 93/84/11 103/94/11 104/17/11 94/15/11
f 20/85/2 21/95/2 105/96/2 95/86/2
f 95/86/3 105/96/3 106/97/3 96/87/3
f 96/87/4 106/97/4 107/98/4 97/88/4
f 97/88/5 107/98/5 108/99/5 98/89/5
f 98/89/6 108/99/6 109/100/6 99/90/6
f 99/90/7 109/100/7 110/101/7 100/91/7
f 100/91/8 110/101/8 111/102/8 101/92/8
f 101/92/9 111/102/9 112/103/9 102/93/9
f 102/93/10 112/103/10 113/104/10 103/94/10
f 103/94/11 113/104/11 114/19/11 104/17/11
f 21/95/2 22/105/2 115/106/2 105/96/2
f 105/96/3 115/106/3 116/107/3 106/97/3
f 106/97/4 116/107/4 117/108/4 107/98/4
f 107/98/5 117/108/5 118/109/5 108/99/5
f 108/99/6 118/109/6 119/110/6 109/100/6
f 109/100/7 119/110/7 120/111/7 110/101/7
f 110/101/8 120/111/8 121/112/8 111/102/8
f 111/102/9 121/112/9 122/113/9 112/103/9
f 112/103/10 122/113/10 123/114/10 113/104/10
f 113/104/11 123/114/11 124/21/11 114/19/11
f 22/105/2 23/115/2 125/116/2 115/106/2
f 115/106/3 125/116/3 126/117/3 116/107/3
f 116/107/4 126/117/4 127/118/4 117/108/4
f 117/108/5 127/118/5 128/119/5 118/109/5
f 118/109/6 128/119/6 129/120/6 119/110/6
f 119/110/7 129/120/7 130/121/7 120/111/7
f 120/111/8 130/121/8 131/122/8 121/112/8
f 121/112/9 131/122/9 132/123/9 122/113/9
f 122/113/10 132/123/10 133/124/10 123/114/10
f 123/114/11 133/124/11 134/23/11 124/21/11
f 23/115/2 24/125/2 135/126/2 125/116/2
f 125/116/3 135/126/3 136/127/3 126/117/3
f 126/117/4 136/127/4 137/128/4 127/118/4
f 127/118/5 137/128/5 138/129/5 128/119/5
f 128/119/6 138/129/6 139/130/6 129/120/6
f 129/120/7 139/130/7 140/131/7 130/121/7
f 130/121/8 140/131/8 141/132/8 131/122/8
f 131/122/9 141/132/9 142/133/9 132/123/9
f 132/123/10 142/133/10 143/134/10 133/124/10
f 133/124/11 143/134/11 144/1/11 134/23/11
f 24/125/2 2/135/2 25/136/2 135/126/2
f 135/126/3 25/136/3 26/137/3 136/127/3
f 136/127/4 26/137/4 27/138/4 137/128/4
f 137/128/5 27/138/5 28/139/5 138/129/5
f 138/129/6 28/139/6 29/140/6 139/130/6
f 139/130/7 29/140/7 30/141/7 140/131/7
f 140/131/8 30/141/8 31/142/8 141/132/8
f 141/132/9 31/142/9 32/143/9 142/133/9
f 142/133/10 32/143/10 33/144/10 143/134/10
f 143/134/11 33/144/11 34/2/11 144/1/11
o Plano.002
v -1.000000 -0.900000 1.000000
v 1.000000 -0.900000 1.000000
v -1.000000 -0.900000 -1.000000
v 1.000000 -0.900000 -1.000000
vn -0.0000 1.0000 -0.0000
vt 0.000000 0.000000
vt 1.000000 0.000000
vt 1.000000 1.000000
vt 0.000000 1.000000
s 0
f 145/145/12 146/146/12 148/147/12 147/148/12
o Cilindro
v 0.380000 1.400000 -0.640000
v 0.380000 1.600000 -0.640000
v 0.426822 1.400000 -0.627895
v 0.426822 1.600000 -0.627895
v 0.471844 1.400000 -0.592044
v 0.471844 1.600000 -0.592044
v 0.513337 1.400000 -0.533826
v 0.513337 1.600000 -0.533826
v 0.549706 1.400000 -0.455478
v 0.549706 1.600000 -0.455478
v 0.579553 1.400000 -0.360009
v 0.579553 1.600000 -0.360009
v 0.601731 1.400000 -0.251091
v 0.601731 1.600000 -0.251091
v 0.615388 1.400000 -0.132907
v 0.615388 1.600000 -0.132907
v 0.620000 1.400000 -0.010000
v 0.620000 1.600000 -0.010000
v 0.615388 1.400000 0.112907
v 0.615388 1.600000 0.112907
v 0.601731 1.400000 0.231091
v 0.601731 1.600000 0.231091
v 0.579553 1.400000 0.340009
v 0.579553 1.600000 0.340009
v 0.549706 1.400000 0.435478
v 0.549706 1.600000 0.435478
v 0.513337 1.400000 0.513826
v 0.513337 1.600000 0.513826
v 0.471844 1.400000 0.572044
v 0.471844 1.600000 0.572044
v 0.426822 1.400000 0.607895
v 0.426822 1.600000 0.607895
v 0.380000 1.400000 0.620000
v 0.380000 1.600000 0.620000
v 0.333178 1.400000 0.607895
v 0.333178 1.600000 0.607895
v 0.288156 1.400000 0.572044
v 0.288156 1.600000 0.572044
v 0.246663 1.400000 0.513826
v 0.246663 1.600000 0.513826
v 0.210294 1.400000 0.435478
v 0.210294 1.600000 0.435478
v 0.180447 1.400000 0.340009
v 0.180447 1.600000 0.340009
v 0.158269 1.400000 0.231091
v 0.158269 1.600000 0.231091
v 0.144611 1.400000 0.112907
v 0.144611 1.600000 0.112907
v 0.140000 1.400000 -0.010000
v 0.140000 1.600000 -0.010000
v 0.144611 1.400000 -0.132907
v 0.144611 1.600000 -0.132907
v 0.158269 1.400000 -0.251091
v 0.158269 1.600000 -0.251091
v 0.180447 1.400000 -0.360009
v 0.180447 1.600000 -0.360009
v 0.210294 1.400000 -0.455478
v 0.210294 1.600000 -0.455478
v 0.246663 1.400000 -0.533826
v 0.246663 1.600000 -0.533826
v 0.288156 1.400000 -0.592044
v 0.288156 1.600000 -0.592044
v 0.333178 1.400000 -0.627895
v 0.333178 1.600000 -0.627895
v 0.600000 1.450000 0.650000
v 0.600000 -0.950000 0.650000
v 0.600000 1.450000 -0.650000
v 0.600000 -0.950000 -0.650000
vn 0.2503 -0.0000 -0.9682
vn 0.6229 -0.0000 -0.7823
vn 0.8143 -0.0000 -0.5804
vn 0.9070 -0.0000 -0.4210
vn 0.9544 -0.0000 -0.2984
vn 0.9799 -0.0000 -0.1995
vn 0.9934 -0.0000 -0.1148
vn 0.9993 -0.0000 -0.0375
vn 0.9993 -0.0000 0.0375
vn 0.9934 -0.0000 0.1148
vn 0.9799 -0.0000 0.1995
vn 0.9544 -0.0000 0.2984
vn 0.9070 -0.0000 0.4210
vn 0.8143 -0.0000 0.5804
vn 0.6229 -0.0000 0.7823
vn 0.2503 -0.0000 0.9682
vn -0.2503 -0.0000 0.9682
vn -0.6229 -0.0000 0.7823
vn -0.8143 -0.0000 0.5804
vn -0.9070 -0.0000 0.4210
vn -0.9544 -0.0000 0.2984
vn -0.9799 -0.0000 0.1995
vn -0.9934 -0.0000 0.1148
vn -0.9993 -0.0000 0.0375
vn -0.9993 -0.0000 -0.0375
vn -0.9934 -0.0000 -0.1148
vn -0.9799 -0.0000 -0.1995
vn -0.9544 -0.0000 -0.2984
vn -0.9070 -0.0000 -0.4210
vn -0.8143 -0.0000 -0.5804
vn -0.0000 1.0000 -0.0000
vn -0.6229 -0.0000 -0.7823
vn -0.2503 -0.0000 -0.9682
vn -0.0000 -1.0000 -0.0000
vn 1.0000 -0.0000 -0.0000
vt 1.000000 0.500000
vt 1.000000 1.000000
vt 0.968750 1.000000
vt 0.968750 0.500000
vt 0.937500 1.000000
vt 0.937500 0.500000
vt 0.906250 1.000000
vt 0.906250 0.500000
vt 0.875000 1.000000
vt 0.875000 0.500000
vt 0.843750 1.000000
vt 0.843750 0.500000
vt 0.812500 1.000000
vt 0.812500 0.500000
vt 0.781250 1.000000
vt 0.781250 0.500000
vt 0.750000 1.000000
vt 0.750000 0.500000
vt 0.718750 1.000000
vt 0.718750 0.500000
vt 0.687500 1.000000
vt 0.687500 0.500000
vt 0.656250 1.000000
vt 0.656250 0.500000
vt 0.625000 1.000000
vt 0.625000 0.500000
vt 0.593750 1.000000
vt 0.593750 0.500000
vt 0.562500 1.000000
vt 0.562500 0.500000
vt 0.531250 1.000000
vt 0.531250 0.500000
vt 0.500000 1.000000
vt 0.500000 0.500000
vt 0.468750 1.000000
vt 0.468750 0.500000
vt 0.437500 1.000000
vt 0.437500 0.500000
vt 0.406250 1.000000
vt 0.406250 0.500000
vt 0.375000 1.000000
vt 0.375000 0.500000
vt 0.343750 1.000000
vt 0.343750 0.500000
vt 0.312500 1.000000
vt 0.312500 0.500000
vt 0.281250 1.000000
vt 0.281250 0.500000
vt 0.250000 1.000000
vt 0.250000 0.500000
vt 0.218750 1.000000
vt 0.218750 0.500000
vt 0.187500 1.000000
vt 0.187500 0.500000
vt 0.156250 1.000000
vt 0.156250 0.500000
vt 0.125000 1.000000
vt 0.125000 0.500000
vt 0.093750 1.000000
vt 0.093750 0.500000
vt 0.062500 1.000000
vt 0.062500 0.500000
vt 0.296822 0.485388
vt 0.250000 0.490000
vt 0.203178 0.485388
vt 0.158156 0.471731
vt 0.116663 0.449553
vt 0.080294 0.419706
vt 0.050447 0.383337
vt 0.028269 0.341844
vt 0.014612 0.296822
vt 0.010000 0.250000
vt 0.014612 0.203178
vt 0.028269 0.158156
vt 0.050447 0.116663
vt 0.080294 0.080294
vt 0.116663 0.050447
vt 0.158156 0.028269
vt 0.203178 0.014612
vt 0.250000 0.010000
vt 0.296822 0.014612
vt 0.341844 0.028269
vt 0.383337 0.050447
vt 0.419706 0.080294
vt 0.449553 0.116663
vt 0.471731 0.158156
vt 0.485388 0.203178
vt 0.490000 0.250000
vt 0.485388 0.296822
vt 0.471731 0.341844
vt 0.449553 0.383337
vt 0.419706 0.419706
vt 0.383337 0.449553
vt 0.341844 0.471731
vt 0.031250 1.000000
vt 0.031250 0.500000
vt 0.000000 1.000000
vt 0.000000 0.500000
vt 0.750000 0.490000
vt 0.796822 0.485388
vt 0.841844 0.471731
vt 0.883337 0.449553
vt 0.919706 0.419706
vt 0.949553 0.383337
vt 0.971731 0.341844
vt 0.985388 0.296822
vt 0.990000 0.250000
vt 0.985388 0.203178
vt 0.971731 0.158156
vt 0.949553 0.116663
vt 0.919706 0.080294
vt 0.883337 0.050447
vt 0.841844 0.028269
vt 0.796822 0.014612
vt 0.750000 0.010000
vt 0.703178 0.014612
vt 0.658156 0.028269
vt 0.616663 0.050447
vt 0.580294 0.080294
vt 0.550447 0.116663
vt 0.528269 0.158156
vt 0.514612 0.203178
vt 0.510000 0.250000
vt 0.514612 0.296822
vt 0.528269 0.341844
vt 0.550447 0.383337
vt 0.580294 0.419706
vt 0.616663 0.449553
vt 0.658156 0.471731
vt 0.703178 0.485388
vt 0.000000 0.000000
vt 1.000000 0.000000
s 0
usemtl Material
f 149/149/13 150/150/13 152/151/13 151/152/13
f 151/152/14 152/151/14 154/153/14 153/154/14
f 153/154/15 154/153/15 156/155/15 155/156/15
f 155/156/16 156/155/16 158/157/16 157/158/16
f 157/158/17 158/157/17 160/159/17 159/160/17
f 159/160/18 160/159/18 162/161/18 161/162/18
f 161/162/19 162/161/19 164/163/19 163/164/19
f 163/164/20 164/163/20 166/165/20 165/166/20
f 165/166/21 166/165/21 168/167/21 167/168/21
f 167/168/22 168/167/22 170/169/22 169/170/22
f 169/170/23 170/169/23 172/171/23 171/172/23
f 171/172/24 172/171/24 174/173/24 173/174/24
f 173/174/25 174/173/25 176/175/25 175/176/25
f 175/176/26 176/175/26 178/177/26 177/178/26
f 177/178/27 178/177/27 180/179/27 179/180/27
f 179/180/28 180/179/28 182/181/28 181/182/28
f 181/182/29 182/181/29 184/183/29 183/184/29
f 183/184/30 184/183/30 186/185/30 185/186/30
f 185/186/31 186/185/31 188/187/31 187/188/31
f 187/188/32 188/187/32 190/189/32 189/190/32
f 189/190/33 190/189/33 192/191/33 191/192/33
f 191/192/34 192/191/34 194/193/34 193/194/34
f 193/194/35 194/193/35 196/195/35 195/196/35
f 195/196/36 196/195/36 198/197/36 197/198/36
f 197/198/37 198/197/37 200/199/37 199/200/37
f 199/200/38 200/199/38 202/201/38 201/202/38
f 201/202/39 202/201/39 204/203/39 203/204/39
f 203/204/40 204/203/40 206/205/40 205/206/40
f 205/206/41 206/205/41 208/207/41 207/208/41
f 207/208/42 208/207/42 210/209/42 209/210/42
f 152/211/43 150/212/43 212/213/43 210/214/43 208/215/43 206/216/43 204/217/43 202/218/43 200/219/43 198/220/43 196/221/43 194/222/43 192/223/43 190/224/43 188/225/43 186/226/43 184/227/43 182/228/43 180/229/43 178/230/43 176/231/43 174/232/43 172/233/43 170/234/43 168/235/43 166/236/43 164/237/43 162/238/43 160/239/43 158/240/43 156/241/43 154/242/43
f 209/210/44 210/209/44 212/243/44 211/244/44
f 211/244/45 212/243/45 150/245/45 149/246/45
f 149/247/46 151/248/46 153/249/46 155/250/46 157/251/46 159/252/46 161/253/46 163/254/46 165/255/46 167/256/46 169/257/46 171/258/46 173/259/46 175/260/46 177/261/46 179/262/46 181/263/46 183/264/46 185/265/46 187/266/46 189/267/46 191/268/46 193/269/46 195/270/46 197/271/46 199/272/46 201/273/46 203/274/46 205/275/46 207/276/46 209/277/46 211/278/46
usemtl Material.001
f 213/279/47 214/280/47 216/150/47 215/245/47
